<?xml version="1.0" encoding="utf-8"?>
<!-- Generator: Adobe Illustrator 18.1.1, SVG Export Plug-In . SVG Version: 6.00 Build 0)  -->
<!DOCTYPE svg PUBLIC "-//W3C//DTD SVG 1.1//EN" "http://www.w3.org/Graphics/SVG/1.1/DTD/svg11.dtd">
<svg version="1.1" id="Layer_1" xmlns="http://www.w3.org/2000/svg" xmlns:xlink="http://www.w3.org/1999/xlink" x="0px" y="0px"
	 viewBox="0 0 317.1 408" enable-background="new 0 0 317.1 408" xml:space="preserve">
<g>
	<g>
		<path fill="#FFFFFF" d="M73.7,236.5c5.6,7.1,8.4,16.9,8.4,29.6c0,12.9-2.9,22.9-8.6,30.1C67.9,303.4,60,307,50,307
			c-5.5,0-10.3-1.3-14.3-3.9c-4-2.6-7.1-6.2-9.3-10.8v45.8H0V227.5h23.2L24,244c2.2-5.5,5.5-9.9,10.1-13.2c4.5-3.3,9.8-4.9,16-4.9
			C60.2,225.9,68.1,229.4,73.7,236.5z M51.7,282.3c2.5-3.4,3.8-8.7,3.8-15.9c0-7.2-1.3-12.5-3.8-15.9c-2.5-3.4-6.2-5.1-10.8-5.1
			c-4.5,0-8,1.7-10.5,5.1c-2.5,3.4-3.8,8.5-3.8,15.1v1.6c0,6.4,1.2,11.4,3.7,15c2.5,3.5,6,5.3,10.6,5.3
			C45.5,287.5,49.1,285.8,51.7,282.3z"/>
		<path fill="#FFFFFF" d="M99.4,215.4c-2.4-2-3.7-5.2-3.7-9.6c0-4.5,1.2-7.7,3.7-9.7c2.4-2,6.4-3,11.8-3c5.4,0,9.3,1,11.8,3
			c2.4,2,3.7,5.3,3.7,9.7c0,4.4-1.2,7.6-3.7,9.6c-2.4,2-6.4,3-11.8,3C105.8,218.4,101.8,217.4,99.4,215.4z M124.4,305.4H97.9v-78
			h26.5V305.4z"/>
		<path fill="#FFFFFF" d="M217,236.5c5.6,7.1,8.4,16.9,8.4,29.6c0,12.9-2.9,22.9-8.6,30.1c-5.7,7.2-13.6,10.8-23.5,10.8
			c-5.5,0-10.3-1.3-14.3-3.9c-4-2.6-7.1-6.2-9.3-10.8v45.8h-26.5V227.5h23.2l0.8,16.5c2.2-5.5,5.5-9.9,10.1-13.2
			c4.5-3.3,9.8-4.9,16-4.9C203.5,225.9,211.4,229.4,217,236.5z M195,282.3c2.5-3.4,3.8-8.7,3.8-15.9c0-7.2-1.3-12.5-3.8-15.9
			c-2.5-3.4-6.2-5.1-10.8-5.1c-4.5,0-8,1.7-10.5,5.1c-2.5,3.4-3.8,8.5-3.8,15.1v1.6c0,6.4,1.2,11.4,3.7,15c2.5,3.5,6,5.3,10.6,5.3
			C188.8,287.5,192.4,285.8,195,282.3z"/>
		<path fill="#FFFFFF" d="M316.3,274.1h-53.2c0.8,4.9,2.6,8.5,5.4,10.8c2.8,2.3,6.4,3.4,11,3.4c3.8,0,7-0.7,9.4-2.2
			c2.4-1.5,4.1-3.6,4.9-6.4l21.5,6.9c-2.2,6.7-6.4,11.7-12.7,15.2c-6.3,3.5-14,5.2-23.2,5.2c-13.6,0-24-3.5-31.3-10.6
			c-7.2-7.1-10.8-17-10.8-29.9c0-12.9,3.5-22.9,10.6-29.9c7.1-7.1,17.1-10.6,30.1-10.6c12.6,0,22.2,3.5,28.9,10.4
			c6.7,6.9,10.1,16.6,10.1,29.1C317.1,268.9,316.8,271.8,316.3,274.1z M263,259.7h29.3c-1.2-10.2-6-15.3-14.3-15.3
			C269.6,244.5,264.6,249.5,263,259.7z"/>
	</g>
	<g>
		<g>
			<path fill="#FFFFFF" d="M4,408H1.4v-34.8H4V408z"/>
			<path fill="#FFFFFF" d="M52.2,408h-3.3l-18.4-27.3l-2.6-4.6h-0.1l0.2,4.4V408h-2.5v-34.8h3.3l18.4,27.2l2.6,4.7l-0.1-4.4v-27.5
				h2.5V408z"/>
			<path fill="#FFFFFF" d="M97.4,375.6H84.7V408h-2.6v-32.3H69.4v-2.4h28V375.6z"/>
			<path fill="#FFFFFF" d="M139.1,405.5v2.4h-24.6v-34.8h23.8v2.4h-21.1v13.4h16.7v2.5h-16.7v14H139.1z"/>
			<path fill="#FFFFFF" d="M180.3,408l-10-15.1h-0.2H160V408h-2.6v-34.8h12.9c3.5,0,6.2,0.9,8.3,2.6c2.1,1.8,3.1,4.2,3.1,7.2
				c0,2.5-0.7,4.6-2.2,6.3s-3.5,2.7-6.1,3.2l10.1,15.4H180.3z M160,390.4h10.2c2.8,0,5-0.6,6.5-1.9c1.5-1.3,2.2-3.1,2.2-5.5
				c0-2.4-0.7-4.2-2.2-5.5c-1.5-1.3-3.6-1.9-6.5-1.9H160V390.4z"/>
			<path fill="#FFFFFF" d="M228.3,408H225l-18.4-27.3l-2.6-4.6h-0.1l0.2,4.4V408h-2.5v-34.8h3.3l18.4,27.2l2.6,4.7l-0.1-4.4v-27.5
				h2.5V408z"/>
			<path fill="#FFFFFF" d="M274.3,405.5v2.4h-24.6v-34.8h23.8v2.4h-21.1v13.4h16.7v2.5h-16.7v14H274.3z"/>
			<path fill="#FFFFFF" d="M316.2,375.6h-12.7V408h-2.6v-32.3h-12.7v-2.4h28V375.6z"/>
		</g>
	</g>
</g>
<g>
	<path fill="#FFFFFF" d="M138.1,54.6c-0.1,0.1-0.3,0.3-0.3,0.3l0,0c-10.6,10.6-14.9,23.4-13.5,37.4c1.2,12.2,7.2,24.2,16.9,33.9
		l36.7,36.7l-4.2,4.2l17.7,17.7l4-4l27.2-27.2l4.2-4.2L209,131.8l-4.2,4.2L168,99.3c-3.4-3.4-5.4-7.4-5.7-10.7
		c-0.2-2.5,0.5-4.4,2.6-6.5l0,0c0,0,0.2-0.1,0.3-0.3c7.5-7.5,7.5-19.7,0-27.2S145.6,47.1,138.1,54.6z"/>
	<path fill="#FFFFFF" d="M103.7,19.4L103.7,19.4L81.7,41.3l-4.2-4.2L59.8,54.7l35.4,35.4l17.7-17.7l-4.2-4.2L130,46.8
		c11.7-11.7,30.8-11.5,42.5,0.2c11.7,11.7,12.1,30.7,0.1,42.7l27.2,27.2c26.9-26.9,26.8-70.2,0.1-96.9
		C173.3-6.6,130.1-6.5,103.7,19.4z"/>
</g>
</svg>
