<?xml version="1.0" encoding="utf-8"?>
<!-- Generator: Adobe Illustrator 19.1.0, SVG Export Plug-In . SVG Version: 6.00 Build 0)  -->
<svg version="1.1" id="Layer_1" xmlns="http://www.w3.org/2000/svg" xmlns:xlink="http://www.w3.org/1999/xlink" x="0px" y="0px"
	 viewBox="0 0 377 239.7" style="enable-background:new 0 0 377 239.7;" xml:space="preserve">
<style type="text/css">
	.st0{fill:#FFFFFF;}
</style>
<g>
	<g>
		<path class="st0" d="M133.3,43.5c5.6,7.1,8.4,16.9,8.4,29.6c0,12.9-2.9,22.9-8.6,30.1c-5.7,7.2-13.6,10.8-23.5,10.8
			c-5.5,0-10.3-1.3-14.3-3.9c-4-2.6-7.1-6.2-9.3-10.8v45.8H59.6V34.5h23.2L83.6,51c2.2-5.5,5.5-9.9,10.1-13.2
			c4.5-3.3,9.8-4.9,16-4.9C119.8,32.9,127.7,36.4,133.3,43.5z M111.3,89.3c2.5-3.4,3.8-8.7,3.8-15.9c0-7.2-1.3-12.5-3.8-15.9
			c-2.5-3.4-6.2-5.1-10.8-5.1c-4.5,0-8,1.7-10.5,5.1c-2.5,3.4-3.8,8.5-3.8,15.1v1.6c0,6.4,1.2,11.4,3.7,15c2.5,3.5,6,5.3,10.6,5.3
			C105.1,94.5,108.7,92.8,111.3,89.3z"/>
		<path class="st0" d="M159,22.4c-2.4-2-3.7-5.2-3.7-9.6c0-4.5,1.2-7.7,3.7-9.7c2.4-2,6.4-3,11.8-3c5.4,0,9.3,1,11.8,3
			c2.4,2,3.7,5.3,3.7,9.7c0,4.4-1.2,7.6-3.7,9.6c-2.4,2-6.4,3-11.8,3C165.3,25.4,161.4,24.4,159,22.4z M184,112.4h-26.5v-78H184
			V112.4z"/>
		<path class="st0" d="M276.6,43.5c5.6,7.1,8.4,16.9,8.4,29.6c0,12.9-2.9,22.9-8.6,30.1c-5.7,7.2-13.6,10.8-23.5,10.8
			c-5.5,0-10.3-1.3-14.3-3.9c-4-2.6-7.1-6.2-9.3-10.8v45.8h-26.5V34.5h23.2l0.8,16.5c2.2-5.5,5.5-9.9,10.1-13.2
			c4.5-3.3,9.8-4.9,16-4.9C263.1,32.9,271,36.4,276.6,43.5z M254.5,89.3c2.5-3.4,3.8-8.7,3.8-15.9c0-7.2-1.3-12.5-3.8-15.9
			c-2.5-3.4-6.2-5.1-10.8-5.1c-4.5,0-8,1.7-10.5,5.1c-2.5,3.4-3.8,8.5-3.8,15.1v1.6c0,6.4,1.2,11.4,3.7,15c2.5,3.5,6,5.3,10.6,5.3
			C248.4,94.5,252,92.8,254.5,89.3z"/>
		<path class="st0" d="M375.9,81.1h-53.2c0.8,4.9,2.6,8.5,5.4,10.8c2.8,2.3,6.4,3.4,11,3.4c3.8,0,7-0.7,9.4-2.2
			c2.4-1.5,4.1-3.6,4.9-6.4l21.5,6.9c-2.2,6.7-6.4,11.7-12.7,15.2c-6.3,3.5-14,5.2-23.2,5.2c-13.6,0-24-3.5-31.3-10.6
			c-7.2-7.1-10.8-17-10.8-29.9c0-12.9,3.5-22.9,10.6-29.9c7.1-7.1,17.1-10.6,30.1-10.6c12.6,0,22.2,3.5,28.9,10.4
			c6.7,6.9,10.1,16.6,10.1,29.1C376.7,75.9,376.4,78.8,375.9,81.1z M322.6,66.7h29.3c-1.2-10.2-6-15.3-14.3-15.3
			C329.1,51.4,324.2,56.5,322.6,66.7z"/>
	</g>
	<g>
		<path class="st0" d="M61,178.2v27.7h32v2.4H61v31.4h-2.7v-64H101v2.4H61z"/>
		<path class="st0" d="M135.2,239.7h-2.7v-64h2.7V239.7z"/>
		<path class="st0" d="M174.1,175.7h22.5c6.7,0,11.7,1.4,15,4.2c3.4,2.8,5,6.9,5,12.3c0,4-1.1,7.3-3.2,9.9c-2.1,2.6-5.2,4.3-9.3,5.2
			v0.1c4.5,0.6,7.9,2.3,10.4,5c2.5,2.7,3.7,6.2,3.7,10.6c0,5.4-1.9,9.6-5.6,12.4c-3.7,2.8-9.1,4.3-16.2,4.3h-22.5V175.7z
			 M196.6,206.2c5.7,0,10-1.2,12.9-3.5c2.9-2.3,4.4-5.8,4.4-10.4c0-4.7-1.5-8.2-4.4-10.6c-2.9-2.4-7.2-3.6-12.9-3.6h-19.8v28H196.6z
			 M196.9,237.3c6.1,0,10.8-1.2,13.9-3.6c3.1-2.4,4.7-6,4.7-10.7c0-4.7-1.6-8.3-4.7-10.7c-3.1-2.4-7.8-3.6-13.9-3.6h-20.2v28.6
			H196.9z"/>
		<path class="st0" d="M297.7,237.3v2.4h-44.4v-64h42.9v2.4H256v27.7h32v2.4h-32v29H297.7z"/>
		<path class="st0" d="M373.9,239.7l-19-28.6h-1.4h-20.7v28.6h-2.7v-64h23.4c6.3,0,11.3,1.6,15,4.7c3.7,3.1,5.5,7.5,5.5,12.9
			c0,4.8-1.4,8.8-4.2,11.8c-2.8,3-6.7,4.9-11.8,5.6l19,28.9H373.9z M366.6,204.6c3.1-2.7,4.7-6.4,4.7-11.2c0-4.8-1.6-8.5-4.7-11.2
			c-3.1-2.7-7.5-4-13.1-4h-20.7v30.4h20.7C359.2,208.6,363.5,207.3,366.6,204.6z"/>
	</g>
	<rect x="0" y="35" class="st0" width="26.9" height="204.8"/>
</g>
</svg>
